#!OML:ASF F:\VICON\USERDATA\INSTALL\Justin_Nancy\Justin_Nancy.ASF
:FULLY-SPECIFIED
:DEGREES
394
root 12.5002 17.3402 23.3531 4.08596 39.2897 5.36084
lowerback 5.90034 -2.02239 -5.04376
upperback 0.346678 -2.95532 2.34545
thorax -2.56954 -1.40387 5.50287
lowerneck -14.709 -2.62439 -9.95979
upperneck 25.3969 -1.74012 2.99411
head 10.7465 -1.33897 2.53752
rclavicle 5.42682e-014 -7.95139e-016
rhumerus -37.8846 -20.3482 -73.6354
rradius 23.4686
rwrist 14.7833
rhand -15.2091 12.7113
rfingers 7.12502
rthumb 10.9631 -16.9824
lclavicle 5.42682e-014 -7.95139e-016
lhumerus -25.7881 8.9762 83.5381
lradius 32.2386
lwrist -8.02186
lhand -16.4907 23.7847
lfingers 7.12502
lthumb 9.72671 53.5401
rfemur -25.5385 2.84312 17.1848
rtibia 22.6897
rfoot 1.51026 -2.9271
rtoes 8.05586
lfemur 9.40771 -5.64398 -27.647
ltibia 29.0714
lfoot -7.50629 1.81734
ltoes -16.2913
395
root 12.5979 17.3605 23.4977 4.00999 39.4081 5.43602
lowerback 5.91321 -2.01262 -4.95924
upperback 0.317276 -2.93843 2.31686
thorax -2.61523 -1.39427 5.42537
lowerneck -14.4823 -2.66253 -10.0036
upperneck 25.3821 -1.80852 3.00188
head 10.7028 -1.37338 2.53903
rclavicle -9.54166e-015 6.36111e-015
rhumerus -38.0862 -20.7776 -73.2236
rradius 23.3908
rwrist 14.8351
rhand -15.4773 12.9284
rfingers 7.12502
rthumb 10.7043 -16.7789
lclavicle -9.54166e-015 6.36111e-015
lhumerus -26.0906 9.46123 83.4959
lradius 31.7417
lwrist -8.22844
lhand -16.0921 23.0233
lfingers 7.12502
lthumb 10.1113 52.7603
rfemur -25.1062 2.10439 17.379
rtibia 23.4037
rfoot 0.914074 -2.7541
rtoes 6.73589
lfemur 8.80266 -5.88437 -27.6915
ltibia 31.0756
lfoot -5.12067 2.04427
ltoes -12.8273
396
root 12.6908 17.372 23.6544 4.04949 39.5421 5.73145
lowerback 5.93777 -2.01858 -5.20138
upperback 0.284438 -2.96588 2.27508
thorax -2.64967 -1.40354 5.5231
lowerneck -14.3884 -2.68673 -10.0251
upperneck 25.4681 -1.85052 3.01995
head 10.7201 -1.39418 2.54522
rclavicle -3.8266e-014 2.38542e-015
rhumerus -38.0683 -20.9705 -72.9419
rradius 23.2309
rwrist 14.6344
rhand -15.2992 12.7894
rfingers 7.12502
rthumb 10.8762 -16.909
lclavicle -3.8266e-014 2.38542e-015
lhumerus -26.3396 10.2587 83.4981
lradius 31.1664
lwrist -8.36971
lhand -16.1361 24.4567
lfingers 7.12502
lthumb 10.0689 54.1958
rfemur -24.4932 1.50475 17.3773
rtibia 23.8332
rfoot 0.487293 -2.4006
rtoes 6.87846
lfemur 7.97055 -5.95516 -27.8891
ltibia 33.2464
lfoot -2.68382 2.16274
ltoes -12.1942
397
root 12.7792 17.3905 23.8181 3.96494 39.5618 5.88847
lowerback 5.87236 -1.97741 -5.42201
upperback 0.330612 -2.92266 2.25751
thorax -2.56077 -1.38385 5.62223
lowerneck -14.4223 -2.68067 -9.96422
upperneck 25.5108 -1.84472 2.9887
head 10.7409 -1.38995 2.52499
rclavicle -2.74323e-014 7.95139e-015
rhumerus -37.2244 -21.1962 -72.7641
rradius 22.3902
rwrist 14.6704
rhand -15.0628 12.2554
rfingers 7.12502
rthumb 11.1042 -17.4308
lclavicle -2.74323e-014 7.95139e-015
lhumerus -26.7301 10.0456 83.7158
lradius 31.1756
lwrist -7.64688
lhand -16.45 26.2229
lfingers 7.12502
lthumb 9.76599 55.9764
rfemur -23.7377 1.23109 17.4547
rtibia 24.0385
rfoot 0.146999 -1.92005
rtoes 6.91979
lfemur 6.79051 -5.15213 -27.729
ltibia 35.5307
lfoot -0.0915388 1.26258
ltoes -17.0192
398
root 12.859 17.4184 23.9684 3.35763 39.464 5.22856
lowerback 5.98646 -1.89154 -4.97445
upperback 0.360558 -2.77976 2.34079
thorax -2.62989 -1.31516 5.45053
lowerneck -14.3686 -2.6786 -9.67768
upperneck 25.492 -1.89967 2.90204
head 10.7214 -1.39746 2.43792
rclavicle -7.95139e-016 1.51076e-014
rhumerus -38.1835 -21.3171 -72.7195
rradius 23.2954
rwrist 14.6754
rhand -14.889 12.0449
rfingers 7.12502
rthumb 11.2718 -17.6323
lclavicle -7.95139e-016 1.51076e-014
lhumerus -27.2603 9.48681 83.8054
lradius 31.3724
lwrist -7.1176
lhand -16.5032 26.1426
lfingers 7.12502
lthumb 9.71467 55.8986
rfemur -22.9448 1.20388 18.2472
rtibia 24.2067
rfoot -0.222402 -1.57915
rtoes 5.88199
lfemur 5.49739 -4.18375 -26.8356
ltibia 37.7427
lfoot 2.32025 -0.418981
ltoes -21.3013
399
root 12.9291 17.4356 24.097 2.52435 39.0903 3.75852
lowerback 6.13181 -1.73039 -3.85058
upperback 0.223572 -2.48462 2.57995
thorax -2.92838 -1.16764 5.05262
lowerneck -14.3435 -2.77319 -9.63428
upperneck 25.6224 -2.09042 3.0613
head 10.7782 -1.46394 2.46465
rclavicle 5.60076e-014 3.18055e-015
rhumerus -38.3352 -21.3452 -72.7431
rradius 23.3348
rwrist 14.3926
rhand -15.1104 12.3897
rfingers 7.12502
rthumb 11.0583 -17.299
lclavicle 5.60076e-014 3.18055e-015
lhumerus -27.7036 9.3466 83.8054
lradius 31.2442
lwrist -7.19615
lhand -16.2389 26.5927
lfingers 7.12502
lthumb 9.96965 56.3366
rfemur -22.4219 1.63638 19.7131
rtibia 24.1049
rfoot -0.344996 -1.53049
rtoes 4.54682
lfemur 3.93342 -3.63371 -25.3542
ltibia 40.0445
lfoot 3.96317 -2.21059
ltoes -22.7565
400
root 13.0215 17.4483 24.2601 2.31293 39.4778 4.03665
lowerback 6.16954 -1.78753 -4.16348
upperback 0.354114 -2.58475 2.5371
thorax -2.79084 -1.22051 5.19073
lowerneck -14.2974 -2.82136 -9.70346
upperneck 25.6339 -2.1873 3.21444
head 10.7825 -1.49684 2.51931
rclavicle 1.57537e-014 1.51076e-014
rhumerus -37.2978 -21.0167 -72.8532
rradius 22.5064
rwrist 13.7012
rhand -15.4228 12.5475
rfingers 7.12502
rthumb 10.757 -17.157
lclavicle 1.57537e-014 1.51076e-014
lhumerus -28.0245 9.45398 83.9013
lradius 31.0322
lwrist -7.70834
lhand -15.7605 26.544
lfingers 7.12502
lthumb 10.4312 56.2652
rfemur -21.0107 1.07815 19.6671
rtibia 23.7535
rfoot -0.664977 -1.14311
rtoes 2.70918
lfemur 3.25802 -3.79312 -25.3531
ltibia 42.2573
lfoot 7.67778 -2.48013
ltoes -17.8458
401
root 13.0976 17.4764 24.4147 1.83537 39.3486 3.50017
lowerback 6.13345 -1.67432 -3.98882
upperback 0.402579 -2.41452 2.69563
thorax -2.74093 -1.13901 5.24217
lowerneck -14.2466 -2.83537 -9.68019
upperneck 25.6244 -2.2284 3.25188
head 10.7717 -1.50861 2.52362
rclavicle 2.88735e-014 -7.95139e-015
rhumerus -37.8006 -20.5469 -72.999
rradius 23.197
rwrist 13.2482
rhand -15.3862 12.7229
rfingers 7.12502
rthumb 10.7922 -16.9798
lclavicle 2.88735e-014 -7.95139e-015
lhumerus -28.1764 9.57681 83.9986
lradius 30.6404
lwrist -8.41688
lhand -15.2341 25.5792
lfingers 7.12502
lthumb 10.939 55.2742
rfemur -19.871 1.62325 20.2289
rtibia 23.2227
rfoot -0.680073 -1.04318
rtoes 0.965446
lfemur 2.06504 -3.34148 -24.5615
ltibia 44.4885
lfoot 10.5618 -3.44752
ltoes -15.3337
402
root 13.1764 17.5064 24.5547 0.982056 39.0771 2.09179
lowerback 6.02257 -1.5355 -2.95256
upperback 0.420756 -2.14342 3.00482
thorax -2.71818 -1.01408 4.95177
lowerneck -14.1447 -2.8644 -9.61172
upperneck 25.4552 -2.29247 3.22714
head 10.692 -1.53154 2.49245
rclavicle -5.71009e-014 1.90833e-014
rhumerus -36.8703 -19.9254 -73.2528
rradius 22.4959
rwrist 12.9173
rhand -15.6657 12.8789
rfingers 7.12502
rthumb 10.5227 -16.8378
lclavicle -5.71009e-014 1.90833e-014
lhumerus -27.9305 10.0672 84.1642
lradius 29.7217
lwrist -9.18886
lhand -15.2613 25.7939
lfingers 7.12502
lthumb 10.9127 55.4903
rfemur -18.9372 2.11672 21.5779
rtibia 22.6969
rfoot -0.844423 -1.1137
rtoes -0.448415
lfemur 0.593585 -2.72996 -23.021
ltibia 46.5939
lfoot 13.1821 -4.49101
ltoes -12.9721
403
root 13.2655 17.5416 24.7001 0.337656 39.1118 1.11162
lowerback 5.80387 -1.50713 -2.16173
upperback 0.513137 -2.04359 3.18448
thorax -2.53184 -0.976774 4.67217
lowerneck -14.1755 -2.90393 -9.47022
upperneck 25.2955 -2.37693 3.20117
head 10.6418 -1.55699 2.44533
rclavicle -6.48038e-014 2.94201e-014
rhumerus -37.6718 -19.3455 -73.5838
rradius 23.5999
rwrist 12.6501
rhand -15.5625 12.6392
rfingers 7.12502
rthumb 10.6222 -17.0723
lclavicle -6.48038e-014 2.94201e-014
lhumerus -27.8747 9.75479 84.4044
lradius 29.2566
lwrist -9.05846
lhand -15.1746 26.023
lfingers 7.12502
lthumb 10.9964 55.715
rfemur -17.9293 1.84718 22.6829
rtibia 21.9464
rfoot -0.920906 -0.960073
rtoes -3.34589
lfemur -0.796443 -2.43059 -21.876
ltibia 48.8515
lfoot 15.5255 -5.207
ltoes -11.2641
